<mxfile host="app.diagrams.net" modified="2022-03-30T13:01:02.080Z" agent="5.0 (X11; Linux x86_64) AppleWebKit/537.36 (KHTML, like Gecko) Chrome/99.0.4844.88 Safari/537.36" etag="LoD0ig01KJlF4C78RJ-2" version="16.6.2" type="github">
  <diagram id="hE8aymsUVtcykUhY7BV-" name="Page-1">
    <mxGraphModel dx="1350" dy="777" grid="1" gridSize="10" guides="1" tooltips="1" connect="1" arrows="1" fold="1" page="1" pageScale="1" pageWidth="1169" pageHeight="827" math="0" shadow="0">
      <root>
        <mxCell id="0" />
        <mxCell id="1" parent="0" />
        <mxCell id="egxH8QLvThwiy25h8IRN-1" value="" style="rounded=1;whiteSpace=wrap;html=1;fillColor=#24FF1C;" vertex="1" parent="1">
          <mxGeometry x="40" y="40" width="1200" height="670" as="geometry" />
        </mxCell>
        <mxCell id="egxH8QLvThwiy25h8IRN-2" value="&lt;font style=&quot;font-size: 24px&quot;&gt;index.js&lt;/font&gt;" style="text;html=1;align=center;verticalAlign=middle;resizable=0;points=[];autosize=1;strokeColor=#24FF1C;fillColor=#24FF1C;fontSize=12;fontFamily=Helvetica;fontColor=default;" vertex="1" parent="1">
          <mxGeometry x="130" y="50" width="100" height="20" as="geometry" />
        </mxCell>
        <mxCell id="egxH8QLvThwiy25h8IRN-3" value="" style="rounded=1;whiteSpace=wrap;html=1;fontFamily=Helvetica;fontSize=24;fontColor=default;strokeColor=default;fillColor=#4262FF;" vertex="1" parent="1">
          <mxGeometry x="80" y="80" width="1120" height="590" as="geometry" />
        </mxCell>
        <mxCell id="egxH8QLvThwiy25h8IRN-4" value="App.jsx" style="text;html=1;align=center;verticalAlign=middle;resizable=0;points=[];autosize=1;strokeColor=none;fillColor=none;fontSize=24;fontFamily=Helvetica;fontColor=default;" vertex="1" parent="1">
          <mxGeometry x="145" y="95" width="90" height="30" as="geometry" />
        </mxCell>
        <mxCell id="egxH8QLvThwiy25h8IRN-10" style="edgeStyle=orthogonalEdgeStyle;shape=flexArrow;rounded=0;orthogonalLoop=1;jettySize=auto;html=1;exitX=0.5;exitY=1;exitDx=0;exitDy=0;fontFamily=Helvetica;fontSize=24;fontColor=default;fillColor=#FFFF00;" edge="1" parent="1" source="egxH8QLvThwiy25h8IRN-9" target="egxH8QLvThwiy25h8IRN-8">
          <mxGeometry relative="1" as="geometry" />
        </mxCell>
        <mxCell id="egxH8QLvThwiy25h8IRN-9" value="" style="rounded=0;whiteSpace=wrap;html=1;fontFamily=Helvetica;fontSize=24;fontColor=default;strokeColor=#24FF1C;fillColor=#FFFF7D;" vertex="1" parent="1">
          <mxGeometry x="280" y="110" width="730" height="60" as="geometry" />
        </mxCell>
        <mxCell id="egxH8QLvThwiy25h8IRN-7" value="BrowserRouter" style="text;html=1;align=center;verticalAlign=middle;resizable=0;points=[];autosize=1;strokeColor=none;fillColor=none;fontSize=24;fontFamily=Helvetica;fontColor=default;" vertex="1" parent="1">
          <mxGeometry x="555" y="125" width="180" height="30" as="geometry" />
        </mxCell>
        <mxCell id="egxH8QLvThwiy25h8IRN-15" style="edgeStyle=orthogonalEdgeStyle;shape=flexArrow;rounded=0;orthogonalLoop=1;jettySize=auto;html=1;exitX=0.5;exitY=1;exitDx=0;exitDy=0;fontFamily=Helvetica;fontSize=24;fontColor=default;fillColor=#F7FF00;" edge="1" parent="1" source="egxH8QLvThwiy25h8IRN-8" target="egxH8QLvThwiy25h8IRN-13">
          <mxGeometry relative="1" as="geometry" />
        </mxCell>
        <mxCell id="egxH8QLvThwiy25h8IRN-8" value="" style="rounded=1;whiteSpace=wrap;html=1;fontFamily=Helvetica;fontSize=24;fontColor=default;strokeColor=#FFFFFF;fillColor=#FFFFFF;" vertex="1" parent="1">
          <mxGeometry x="280" y="195" width="730" height="60" as="geometry" />
        </mxCell>
        <mxCell id="egxH8QLvThwiy25h8IRN-11" value="Header.jsx" style="text;html=1;align=center;verticalAlign=middle;resizable=0;points=[];autosize=1;strokeColor=none;fillColor=none;fontSize=24;fontFamily=Helvetica;fontColor=default;" vertex="1" parent="1">
          <mxGeometry x="580" y="210" width="130" height="30" as="geometry" />
        </mxCell>
        <mxCell id="egxH8QLvThwiy25h8IRN-19" style="edgeStyle=orthogonalEdgeStyle;shape=flexArrow;rounded=0;orthogonalLoop=1;jettySize=auto;html=1;exitX=0.5;exitY=1;exitDx=0;exitDy=0;entryX=0.5;entryY=0;entryDx=0;entryDy=0;fontFamily=Helvetica;fontSize=24;fontColor=default;fillColor=#F7FF00;" edge="1" parent="1" source="egxH8QLvThwiy25h8IRN-13" target="egxH8QLvThwiy25h8IRN-17">
          <mxGeometry relative="1" as="geometry" />
        </mxCell>
        <mxCell id="egxH8QLvThwiy25h8IRN-13" value="" style="rounded=1;whiteSpace=wrap;html=1;fontFamily=Helvetica;fontSize=24;fontColor=default;strokeColor=#FFFFFF;fillColor=#FFFFFF;" vertex="1" parent="1">
          <mxGeometry x="280" y="280" width="730" height="60" as="geometry" />
        </mxCell>
        <mxCell id="egxH8QLvThwiy25h8IRN-16" value="Aside.jsx" style="text;html=1;align=center;verticalAlign=middle;resizable=0;points=[];autosize=1;strokeColor=none;fillColor=none;fontSize=24;fontFamily=Helvetica;fontColor=default;" vertex="1" parent="1">
          <mxGeometry x="590" y="295" width="110" height="30" as="geometry" />
        </mxCell>
        <mxCell id="egxH8QLvThwiy25h8IRN-27" style="edgeStyle=orthogonalEdgeStyle;shape=flexArrow;rounded=0;orthogonalLoop=1;jettySize=auto;html=1;exitX=0.25;exitY=1;exitDx=0;exitDy=0;entryX=0.25;entryY=0;entryDx=0;entryDy=0;fontFamily=Helvetica;fontSize=24;fontColor=default;fillColor=#F7FF00;" edge="1" parent="1" source="egxH8QLvThwiy25h8IRN-17" target="egxH8QLvThwiy25h8IRN-23">
          <mxGeometry relative="1" as="geometry" />
        </mxCell>
        <mxCell id="egxH8QLvThwiy25h8IRN-29" style="edgeStyle=orthogonalEdgeStyle;shape=flexArrow;rounded=0;orthogonalLoop=1;jettySize=auto;html=1;exitX=0.75;exitY=1;exitDx=0;exitDy=0;entryX=0.75;entryY=0;entryDx=0;entryDy=0;fontFamily=Helvetica;fontSize=24;fontColor=default;fillColor=#F7FF00;" edge="1" parent="1" source="egxH8QLvThwiy25h8IRN-17" target="egxH8QLvThwiy25h8IRN-24">
          <mxGeometry relative="1" as="geometry" />
        </mxCell>
        <mxCell id="egxH8QLvThwiy25h8IRN-17" value="" style="rounded=0;whiteSpace=wrap;html=1;fontFamily=Helvetica;fontSize=24;fontColor=default;strokeColor=#24FF1C;fillColor=#FFFF7D;" vertex="1" parent="1">
          <mxGeometry x="280" y="370" width="730" height="60" as="geometry" />
        </mxCell>
        <mxCell id="egxH8QLvThwiy25h8IRN-20" value="Routes" style="text;html=1;align=center;verticalAlign=middle;resizable=0;points=[];autosize=1;strokeColor=none;fillColor=none;fontSize=24;fontFamily=Helvetica;fontColor=default;" vertex="1" parent="1">
          <mxGeometry x="600" y="385" width="90" height="30" as="geometry" />
        </mxCell>
        <mxCell id="egxH8QLvThwiy25h8IRN-35" style="edgeStyle=orthogonalEdgeStyle;shape=flexArrow;rounded=0;orthogonalLoop=1;jettySize=auto;html=1;exitX=0.5;exitY=1;exitDx=0;exitDy=0;entryX=0.5;entryY=0;entryDx=0;entryDy=0;fontFamily=Helvetica;fontSize=24;fontColor=default;fillColor=#F7FF00;" edge="1" parent="1" source="egxH8QLvThwiy25h8IRN-23" target="egxH8QLvThwiy25h8IRN-33">
          <mxGeometry relative="1" as="geometry" />
        </mxCell>
        <mxCell id="egxH8QLvThwiy25h8IRN-23" value="" style="rounded=0;whiteSpace=wrap;html=1;fontFamily=Helvetica;fontSize=24;fontColor=default;strokeColor=#FFFFFF;fillColor=#FFFF7D;" vertex="1" parent="1">
          <mxGeometry x="280" y="480" width="360" height="60" as="geometry" />
        </mxCell>
        <mxCell id="egxH8QLvThwiy25h8IRN-36" style="edgeStyle=orthogonalEdgeStyle;shape=flexArrow;rounded=0;orthogonalLoop=1;jettySize=auto;html=1;exitX=0.5;exitY=1;exitDx=0;exitDy=0;entryX=0.5;entryY=0;entryDx=0;entryDy=0;fontFamily=Helvetica;fontSize=24;fontColor=default;fillColor=#F7FF00;" edge="1" parent="1" source="egxH8QLvThwiy25h8IRN-24" target="egxH8QLvThwiy25h8IRN-34">
          <mxGeometry relative="1" as="geometry" />
        </mxCell>
        <mxCell id="egxH8QLvThwiy25h8IRN-24" value="" style="rounded=0;whiteSpace=wrap;html=1;fontFamily=Helvetica;fontSize=24;fontColor=default;strokeColor=#FFFFFF;fillColor=#FFFF7D;" vertex="1" parent="1">
          <mxGeometry x="650" y="480" width="360" height="60" as="geometry" />
        </mxCell>
        <mxCell id="egxH8QLvThwiy25h8IRN-31" value="Route path=&#39;/&#39;" style="text;html=1;align=center;verticalAlign=middle;resizable=0;points=[];autosize=1;strokeColor=none;fillColor=none;fontSize=24;fontFamily=Helvetica;fontColor=default;" vertex="1" parent="1">
          <mxGeometry x="380" y="495" width="160" height="30" as="geometry" />
        </mxCell>
        <mxCell id="egxH8QLvThwiy25h8IRN-32" value="Route path=&#39;/user/:userId&#39;" style="text;html=1;align=center;verticalAlign=middle;resizable=0;points=[];autosize=1;strokeColor=none;fillColor=none;fontSize=24;fontFamily=Helvetica;fontColor=default;" vertex="1" parent="1">
          <mxGeometry x="685" y="495" width="290" height="30" as="geometry" />
        </mxCell>
        <mxCell id="egxH8QLvThwiy25h8IRN-33" value="" style="rounded=1;whiteSpace=wrap;html=1;fontFamily=Helvetica;fontSize=24;fontColor=default;strokeColor=#FFFFFF;fillColor=#F5FFFD;" vertex="1" parent="1">
          <mxGeometry x="280" y="570" width="360" height="60" as="geometry" />
        </mxCell>
        <mxCell id="egxH8QLvThwiy25h8IRN-34" value="" style="rounded=1;whiteSpace=wrap;html=1;fontFamily=Helvetica;fontSize=24;fontColor=default;strokeColor=#FFFFFF;fillColor=#F5FFFD;" vertex="1" parent="1">
          <mxGeometry x="650" y="570" width="360" height="60" as="geometry" />
        </mxCell>
        <mxCell id="egxH8QLvThwiy25h8IRN-37" value="Home.jsx" style="text;html=1;align=center;verticalAlign=middle;resizable=0;points=[];autosize=1;strokeColor=none;fillColor=none;fontSize=24;fontFamily=Helvetica;fontColor=default;" vertex="1" parent="1">
          <mxGeometry x="400" y="585" width="120" height="30" as="geometry" />
        </mxCell>
        <mxCell id="egxH8QLvThwiy25h8IRN-38" value="ProfilPage.jsx" style="text;html=1;align=center;verticalAlign=middle;resizable=0;points=[];autosize=1;strokeColor=none;fillColor=none;fontSize=24;fontFamily=Helvetica;fontColor=default;" vertex="1" parent="1">
          <mxGeometry x="750" y="585" width="160" height="30" as="geometry" />
        </mxCell>
      </root>
    </mxGraphModel>
  </diagram>
</mxfile>
